P3
# linhas e colunas
4 4
# cor maxima por canal
255
# pixels
1 2 3 100 0 0 0 0 0 255 0 255
0 0 0 0 255 175 0 0 0 0 0 0
0 0 0 0 0 0 0 15 175 0 0 0
255 0 255 0 0 0 0 0 0 255 255 255