P3
# linhas e colunas
2 2
# cor maxima por canal
255
# pixels
1 2 3 100 0 0
0 0 0 0 255 175
